<?xml version="1.0" encoding="UTF-8"?>
<!-- WorkField: rozpoznanie gatunku ze zdjęcia (Pl@ntNet).
     Listek, nie lupa — lupa znaczy „szukaj w danych", a tu chodzi
     o oznaczenie rośliny. Ta sama różnica, co między wyszukiwarką
     a kluczem do oznaczania. -->
<svg xmlns="http://www.w3.org/2000/svg" width="24" height="24" viewBox="0 0 24 24">
  <path fill="currentColor"
        d="M19.8 3.4c-6.6-.9-11.9 1.3-14.3 5.6-1.9 3.4-1.4 7.3.9 9.6l-2 3.1 1.5 1 2-3.1c2.9 1.3 6.6.3 9-2.4 3.1-3.5 4-8.8 2.9-13.8zM12.6 15c-1.9 2.1-4.5 2.9-6.4 2.1l8.9-9.7-1.3-1.2-8.9 9.7c-.9-1.8-.4-4.4 1.1-6.5 1.9-2.7 5.6-4.4 10.5-3.9.6 3.9-.4 7.5-3.9 9.5z"/>
</svg>
